M48
; DRILL file {KiCad 5.1.6-c6e7f7d~87~ubuntu20.04.1} date Sun Nov  1 10:03:49 2020
; FORMAT={-:-/ absolute / inch / decimal}
; #@! TF.CreationDate,2020-11-01T10:03:49-08:00
; #@! TF.GenerationSoftware,Kicad,Pcbnew,5.1.6-c6e7f7d~87~ubuntu20.04.1
; #@! TF.FileFunction,Plated,1,2,PTH
FMAT,2
INCH
T1C0.0295
T2C0.0315
T3C0.0433
%
G90
G05
T1
X5.3Y-2.85
X5.3Y-2.9
X5.3Y-2.95
X5.3Y-3.4
X5.3Y-3.45
X5.3Y-3.5
T2
X5.3Y-2.45
X5.7Y-2.45
X4.6Y-2.9
X5.0Y-2.9
X4.6Y-3.45
X5.0Y-3.45
X5.3Y-3.9
X5.7Y-3.9
T3
X4.4Y-3.15
X4.2Y-3.15
X4.8Y-3.15
X4.4Y-3.45
X6.5Y-3.15
X4.65Y-2.65
X6.1Y-3.15
X5.0Y-3.7
X4.6Y-3.15
X4.4Y-2.9
X6.3Y-3.15
X4.95Y-2.65
X5.9Y-3.15
X5.0Y-3.15
X4.65Y-3.7
T0
M30
